<?xml version="1.0" standalone="no"?>
<!DOCTYPE svg PUBLIC "-//W3C//DTD SVG 20010904//EN"
 "http://www.w3.org/TR/2001/REC-SVG-20010904/DTD/svg10.dtd">
<svg version="1.0" xmlns="http://www.w3.org/2000/svg"
 width="400.000000pt" height="400.000000pt" viewBox="0 0 400.000000 400.000000"
 preserveAspectRatio="xMidYMid meet">
<metadata>
Created by potrace 1.11, written by Peter Selinger 2001-2013
</metadata>
<g transform="translate(0.000000,400.000000) scale(0.100000,-0.100000)"
fill="#000000" stroke="none">
<path d="M2949 3995 c-3 -2 -58 -7 -124 -11 -66 -3 -131 -8 -145 -9 -14 -2
-60 -4 -103 -4 l-79 -1 7 -97 c3 -54 8 -123 10 -153 2 -30 7 -98 10 -150 4
-52 8 -96 9 -97 8 -9 270 -18 284 -9 6 3 13 3 16 -2 3 -5 54 -10 113 -12 59
-1 128 -4 153 -5 25 -2 69 -3 98 -4 l52 -1 0 -1375 0 -1375 -62 -1 c-35 0
-307 0 -605 0 -299 -1 -545 -4 -547 -8 -8 -13 17 -95 41 -133 30 -48 29 -52
-7 -33 -16 8 -31 15 -34 15 -2 0 -10 -33 -16 -72 -7 -40 -14 -82 -16 -93 -6
-30 -17 -88 -19 -105 -11 -84 -18 -108 -31 -106 -11 2 -14 34 -17 157 -3 138
-5 159 -26 198 -20 38 -22 52 -16 112 l7 68 -549 0 c-301 0 -553 0 -560 0 -9
1 -12 261 -11 1144 0 628 -3 1174 -7 1212 -13 124 -24 184 -45 239 -8 21 -7
26 5 26 13 0 15 46 15 328 l0 328 -340 0 c-234 0 -340 -3 -343 -10 -3 -10 -2
-3839 2 -3876 1 -18 -86 -17 1441 -6 1508 12 2217 18 2320 19 l105 2 0 1913
c0 1053 -3 1919 -7 1925 -4 6 -10 8 -14 4 -4 -4 -12 -3 -18 2 -6 6 -45 20 -86
32 -72 22 -93 23 -466 26 -215 1 -393 1 -395 -2z m-2229 -642 c0 -27 -15 -23
-22 5 -3 11 0 19 8 19 8 0 14 -11 14 -24z m3078 -93 c46 -12 47 -14 29 -47
-13 -23 -13 -22 -60 23 -27 25 -40 43 -30 40 10 -2 37 -10 61 -16z m-2215
-3080 c3 -11 2 -18 -1 -17 -4 2 -15 7 -25 10 -10 4 -15 11 -12 17 10 17 32 11
38 -10z"/>
</g>
</svg>
